HIERARCHY
ROOT Hips
{
	OFFSET 0.000000 0.000000 0.000000
	CHANNELS 6 Xposition Yposition Zposition Xrotation Yrotation Zrotation
	JOINT LeftUpLeg_virtual
	{
		OFFSET 0.000000 0.000000 0.000000
		CHANNELS 3 Xrotation Yrotation Zrotation
		JOINT LeftUpLeg
		{
			OFFSET 10.205400 -3.823500 0.155100
			CHANNELS 3 Xrotation Yrotation Zrotation
			JOINT LeftLeg
			{
				OFFSET 0.708757 -12.982077 0.567790
				CHANNELS 3 Xrotation Yrotation Zrotation
				JOINT LeftFoot
				{
					OFFSET -0.708756 -10.717838 -2.184338
					CHANNELS 3 Xrotation Yrotation Zrotation
					JOINT LeftToeBase
					{
						OFFSET 0.108149 -7.191104 7.560241
						CHANNELS 3 Xrotation Yrotation Zrotation
						JOINT LeftToe_End
						{
							OFFSET 0.070230 0.081724 4.490308
							CHANNELS 3 Xrotation Yrotation Zrotation
							End Site
							{
								OFFSET 0 0 0
							}
						}
					}
				}
			}
		}
	}
	JOINT RightUpLeg_virtual
	{
		OFFSET 0.000000 0.000000 0.000000
		CHANNELS 3 Xrotation Yrotation Zrotation
		JOINT RightUpLeg
		{
			OFFSET -10.205400 -3.823500 0.005500
			CHANNELS 3 Xrotation Yrotation Zrotation
			JOINT RightLeg
			{
				OFFSET -0.708756 -12.982134 0.610632
				CHANNELS 3 Xrotation Yrotation Zrotation
				JOINT RightFoot
				{
					OFFSET 0.708754 -10.717769 -1.945823
					CHANNELS 3 Xrotation Yrotation Zrotation
					JOINT RightToeBase
					{
						OFFSET -0.108140 -7.191069 7.372968
						CHANNELS 3 Xrotation Yrotation Zrotation
						JOINT RightToe_End
						{
							OFFSET -0.070227 0.081735 4.479403
							CHANNELS 3 Xrotation Yrotation Zrotation
							End Site
							{
								OFFSET 0 0 0
							}
						}
					}
				}
			}
		}
	}
	JOINT Spine_virtual
	{
		OFFSET 0.000000 0.000000 0.000000
		CHANNELS 3 Xrotation Yrotation Zrotation
		JOINT Spine
		{
			OFFSET 0.000000 6.876099 0.125700
			CHANNELS 3 Xrotation Yrotation Zrotation
			JOINT Spine1
			{
				OFFSET 0.000000 5.730043 0.104720
				CHANNELS 3 Xrotation Yrotation Zrotation
				JOINT Spine1_split
				{
					OFFSET 0.000000 5.730043 0.104720
					CHANNELS 3 Xrotation Yrotation Zrotation
					JOINT Spine2
					{
						OFFSET 0.000000 5.730043 0.104720
						CHANNELS 3 Xrotation Yrotation Zrotation
						JOINT Neck_virtual
						{
							OFFSET 0.000000 0.000000 0.000000
							CHANNELS 3 Xrotation Yrotation Zrotation
							JOINT Neck
							{
								OFFSET 0.000000 10.314075 0.188496
								CHANNELS 3 Xrotation Yrotation Zrotation
								JOINT Head
								{
									OFFSET 0.000000 7.643700 -2.377400
									CHANNELS 3 Xrotation Yrotation Zrotation
									JOINT HeadTop_End
									{
										OFFSET 0.000000 43.788605 -13.619600
										CHANNELS 3 Xrotation Yrotation Zrotation
										End Site
										{
											OFFSET 0 0 0
										}
									}
								}
							}
						}
						JOINT LeftShoulder_virtual
						{
							OFFSET 0.000000 0.000000 0.000000
							CHANNELS 3 Xrotation Yrotation Zrotation
							JOINT LeftShoulder
							{
								OFFSET 2.196100 4.412489 0.087492
								CHANNELS 3 Xrotation Yrotation Zrotation
								JOINT LeftShoulder_split
								{
									OFFSET 2.196100 4.412489 0.087492
									CHANNELS 3 Xrotation Yrotation Zrotation
									JOINT LeftArm
									{
										OFFSET 8.771219 -2.981674 -0.026999
										CHANNELS 3 Xrotation Yrotation Zrotation
										JOINT LeftForeArm
										{
											OFFSET 8.512804 0.000000 -0.000000
											CHANNELS 3 Xrotation Yrotation Zrotation
											JOINT LeftHand
											{
												OFFSET 18.484802 0.000000 -0.000000
												CHANNELS 3 Xrotation Yrotation Zrotation
												End Site
												{
													OFFSET 0 0 0
												}
											}
										}
									}
								}
							}
						}
						JOINT RightShoulder_virtual
						{
							OFFSET 0.000000 0.000000 0.000000
							CHANNELS 3 Xrotation Yrotation Zrotation
							JOINT RightShoulder
							{
								OFFSET -2.196100 4.412496 0.070690
								CHANNELS 3 Xrotation Yrotation Zrotation
								JOINT RightShoulder_split
								{
									OFFSET -2.196100 4.412496 0.070690
									CHANNELS 3 Xrotation Yrotation Zrotation
									JOINT RightArm
									{
										OFFSET -8.771282 -2.981682 -0.094208
										CHANNELS 3 Xrotation Yrotation Zrotation
										JOINT RightForeArm
										{
											OFFSET -8.494598 0.000000 0.000000
											CHANNELS 3 Xrotation Yrotation Zrotation
											JOINT RightHand
											{
												OFFSET -18.483803 0.000000 0.000001
												CHANNELS 3 Xrotation Yrotation Zrotation
												End Site
												{
													OFFSET 0 0 0
												}
											}
										}
									}
								}
							}
						}
					}
				}
			}
		}
	}
}
MOTION
Frames: 6
Frame Time: 0.03333333
0.242341 36.128403 -2.335255 0.000000 0.000000 0.000000 -85.623251 -4.407434 1.704552 12.195675 18.459674 8.736399 -3.325798 4.280794 6.760075 29.197754 28.262341 -31.887588 -8.558699 0.023824 2.504795 0.000000 0.000000 0.000000 -87.501588 -0.870541 4.036601 14.874106 -23.264278 -17.109679 -3.413108 0.767975 -6.874405 26.190113 -34.852519 35.501045 -6.657194 1.635921 -3.007851 0.000000 0.000000 0.000000 -85.876679 -5.531038 -0.310014 4.822911 -2.107662 0.693564 4.798755 -0.935491 -1.451591 0.462651 0.786796 -0.412433 0.000000 0.000000 0.000000 5.721857 -1.435162 -1.314038 -8.579252 -1.322474 2.493101 -9.609665 -3.652734 4.638490 0.000000 0.000000 0.000000 6.618172 -1.551756 -0.870957 -0.311931 3.720733 -7.595109 -4.212795 1.449749 -4.392573 39.907866 -32.087027 -34.547291 -24.472455 -88.326845 -23.942911 0.000000 0.000000 0.000000 5.815983 -1.555834 -1.395719 0.470738 -3.184624 19.590736 1.041570 2.300441 0.228550 -41.289436 50.029411 58.716595 179.902087 76.740276 178.533222 0.000000 0.000000 0.000000 
0.228162 36.130611 -2.511028 0.000000 0.000000 0.000000 -86.506292 -4.346327 1.829440 13.510557 18.641434 8.794381 -3.437576 4.765359 6.832739 28.551644 28.744079 -32.049539 -8.498906 0.048128 2.627181 0.000000 0.000000 0.000000 -88.612654 -0.669343 4.379916 15.230128 -24.277289 -17.229564 -3.275658 0.974662 -6.788860 26.301165 -34.285938 35.534554 -6.725040 1.795430 -3.151233 0.000000 0.000000 0.000000 -86.952973 -5.274094 -0.063696 4.829658 -2.192303 0.727349 4.513951 -1.007308 -1.587752 0.626764 0.792223 -0.449499 0.000000 0.000000 0.000000 5.615847 -1.491847 -1.467125 -9.253696 -1.215347 2.636082 -11.521026 -3.155997 5.435107 0.000000 0.000000 0.000000 6.479816 -1.604726 -1.031988 -0.255168 3.238420 -6.876853 -4.355626 1.109498 -4.254887 39.077531 -32.017823 -35.804528 -25.306706 -88.477615 -24.693994 0.000000 0.000000 0.000000 5.598622 -1.592785 -1.514758 0.461991 -2.946462 18.287041 0.768783 2.592148 -0.040308 -45.139778 48.257711 61.392438 -178.306432 77.911708 176.703605 0.000000 0.000000 0.000000 
0.226878 36.116814 -2.587591 0.000000 0.000000 0.000000 -87.081879 -4.300044 1.820708 14.301018 18.687954 9.181437 -3.302000 5.140015 6.871221 28.130961 29.317170 -32.159491 -8.514985 0.050816 2.794717 0.000000 0.000000 0.000000 -89.323636 -0.612501 4.448437 15.316409 -25.051865 -17.230503 -3.347899 1.066620 -6.616340 26.960281 -33.679475 35.618723 -7.244719 1.920637 -3.250764 0.000000 0.000000 0.000000 -87.673066 -5.076515 0.025956 4.791174 -2.163404 0.851275 4.405612 -1.015481 -1.638315 0.780790 0.757870 -0.429729 0.000000 0.000000 0.000000 5.557328 -1.476359 -1.558791 -9.407005 -1.046662 2.429442 -11.735333 -2.577538 5.875673 0.000000 0.000000 0.000000 6.451261 -1.604860 -1.150903 -0.212783 2.718869 -6.440365 -4.365368 0.849435 -3.949614 38.557135 -32.093775 -36.460301 -25.654197 -88.831815 -25.040881 0.000000 0.000000 0.000000 5.534516 -1.536206 -1.546316 0.474524 -2.665799 17.245857 0.353341 2.708734 -0.245381 -46.709270 47.329570 61.971611 -176.544298 78.990530 174.953410 0.000000 0.000000 0.000000 
0.232187 36.098820 -2.577139 0.000000 0.000000 0.000000 -87.299380 -4.248535 1.709612 14.500985 18.558249 9.779447 -2.972113 5.332927 6.891800 28.032006 29.831282 -32.279501 -8.521943 0.036254 2.952375 0.000000 0.000000 0.000000 -89.591987 -0.714325 4.230977 15.233642 -25.405707 -17.126047 -3.531078 1.052059 -6.435417 28.092729 -33.134047 35.850348 -8.182874 1.975561 -3.286834 0.000000 0.000000 0.000000 -88.007910 -4.981415 -0.054191 4.726847 -2.020619 1.039441 4.416204 -0.981752 -1.605547 1.008382 0.705048 -0.363895 0.000000 0.000000 0.000000 5.503435 -1.396855 -1.587350 -8.978548 -0.869560 1.928601 -10.136165 -1.967769 5.945634 0.000000 0.000000 0.000000 6.503926 -1.572332 -1.211131 -0.180706 2.268441 -6.283462 -4.148447 0.657714 -3.450911 38.470948 -32.376350 -36.491078 -25.954994 -89.291691 -25.402124 0.000000 0.000000 0.000000 5.615335 -1.421873 -1.499193 0.519398 -2.442707 16.604789 -0.086381 2.698497 -0.355161 -45.347374 47.584436 60.238648 -175.473434 79.647232 173.985641 0.000000 0.000000 0.000000 
0.232890 36.074135 -2.487463 0.000000 0.000000 0.000000 -87.222807 -4.266433 1.484099 14.156612 18.211793 10.419448 -2.570476 5.333673 6.955666 28.242919 30.261044 -32.376975 -8.413785 0.022535 3.012242 0.000000 0.000000 0.000000 -89.367117 -0.878388 3.843601 15.093417 -25.234928 -16.873702 -3.806562 0.960906 -6.346195 29.324546 -32.864234 36.047413 -9.103945 1.942076 -3.246307 0.000000 0.000000 0.000000 -87.962502 -5.006377 -0.294955 4.644601 -1.801799 1.230861 4.493734 -0.940652 -1.516819 1.218292 0.559547 -0.233645 0.000000 0.000000 0.000000 5.428274 -1.292090 -1.551776 -7.947583 -0.724903 1.265739 -6.704868 -1.438219 5.616253 0.000000 0.000000 0.000000 6.628309 -1.540988 -1.212554 -0.149174 1.984416 -6.327116 -3.855114 0.613954 -2.900424 38.752379 -32.796014 -36.068071 -31.924468 -89.692897 -31.458875 0.000000 0.000000 0.000000 5.790208 -1.304957 -1.393979 0.591072 -2.391850 16.431325 -0.309464 2.729768 -0.437446 -40.561697 48.740237 56.110465 -175.713078 79.383402 174.443523 0.000000 0.000000 0.000000 
0.228063 36.047466 -2.380566 0.000000 0.000000 0.000000 -86.825331 -4.361390 1.169340 13.393088 17.690870 10.933551 -2.295154 5.215661 7.081967 28.519841 30.659220 -32.316572 -8.115186 0.018797 2.929547 0.000000 0.000000 0.000000 -88.775370 -1.069611 3.357548 14.944230 -24.580418 -16.482681 -4.134871 0.782246 -6.376592 30.314036 -33.003751 36.048506 -9.624750 1.835215 -3.093201 0.000000 0.000000 0.000000 -87.572444 -5.139909 -0.664896 4.571121 -1.559543 1.374361 4.599358 -0.928336 -1.377301 1.298285 0.336607 -0.161918 0.000000 0.000000 0.000000 5.308116 -1.188236 -1.461181 -6.356964 -0.656160 0.549398 -1.681246 -1.152624 4.927671 0.000000 0.000000 0.000000 6.786521 -1.531350 -1.139618 -0.119442 1.975537 -6.473688 -3.478750 0.631348 -2.417453 39.288396 -33.346329 -35.379704 -41.232134 -89.828681 -40.881841 0.000000 0.000000 0.000000 6.007551 -1.216649 -1.248500 0.688375 -2.626860 16.704949 -0.293225 2.806957 -0.473810 -32.407824 49.920678 49.753461 -177.179137 77.837457 176.208840 0.000000 0.000000 0.000000 
